<svg xmlns="http://www.w3.org/2000/svg" width="83" height="82" viewBox="0 0 83 82">
  <g id="Group_50" data-name="Group 50" transform="translate(-1386 -1538)">
    <g id="Ellipse_12" data-name="Ellipse 12" transform="translate(1386 1538)" fill="none" stroke="#e36415" stroke-linecap="round" stroke-linejoin="round" stroke-width="2">
      <ellipse cx="41.5" cy="41" rx="41.5" ry="41" stroke="none"/>
      <ellipse cx="41.5" cy="41" rx="40.5" ry="40" fill="none"/>
    </g>
    <g id="_5210fc46ae730a369dacf3f8ebcb3da4" data-name="5210fc46ae730a369dacf3f8ebcb3da4" transform="translate(1397.818 1402.606)">
      <g id="Group_34" data-name="Group 34" transform="translate(10 163)">
        <path id="Path_49" data-name="Path 49" d="M10.938-347.921a1.4,1.4,0,0,0-.811.668c-.119.246-.127,1.343-.127,12.043v11.773h4.054v.986c0,.795.024,1.017.127,1.113.1.111.485.127,2.981.127a26.876,26.876,0,0,0,3.021-.079c.135-.079.151-.175.151-1.113v-1.033H38.617v1.033c0,.938.016,1.033.151,1.113a26.876,26.876,0,0,0,3.021.079c2.5,0,2.878-.016,2.981-.127.1-.1.127-.318.127-1.113v-.986h4.054l-.016-11.868-.024-11.86-.183-.254a1.6,1.6,0,0,0-.517-.413L47.869-348l-18.362.008C19.412-347.992,11.057-347.96,10.938-347.921Zm22.273,11.566v9.1H11.828v-18.2H33.211Zm8.68-9.014a3.833,3.833,0,0,1,2.949,4.213A3.883,3.883,0,0,1,42-338.024a3.794,3.794,0,0,1-4.531-2.7,3.751,3.751,0,0,1,.994-3.617A3.7,3.7,0,0,1,41.892-345.369Zm-1.781,10.9c-.024,1.622-.04,1.852-.151,1.876a17.27,17.27,0,0,1-1.987-.851c-1.391-.644-1.86-.9-1.86-1s.469-.366,1.828-1a17.672,17.672,0,0,1,2.011-.866h.175Zm4.134-1c.994.461,1.836.874,1.884.914s.032.119-.048.191a38.325,38.325,0,0,1-3.808,1.789.211.211,0,0,1-.191-.127c-.024-.072-.048-.851-.048-1.741s.024-1.669.048-1.741a.222.222,0,0,1,.2-.127A20.049,20.049,0,0,1,44.245-335.472Zm-6.852,6.224a1.561,1.561,0,0,1,.588,2.305,1.57,1.57,0,0,1-2.544,0,1.553,1.553,0,0,1,1.272-2.456A1.989,1.989,0,0,1,37.393-329.248Zm4.388,0a1.569,1.569,0,0,1,.89,1.4,1.413,1.413,0,0,1-.541,1.169,1.557,1.557,0,0,1-2.393-.429,1.878,1.878,0,0,1-.079-1.312,1.976,1.976,0,0,1,.827-.866A1.779,1.779,0,0,1,41.78-329.248Zm4.475.032a1.564,1.564,0,0,1,.135,2.655,1.263,1.263,0,0,1-.906.223c-.517,0-.6-.024-.882-.246a1.79,1.79,0,0,1-.66-1.24A1.583,1.583,0,0,1,46.256-329.216Z" transform="translate(-10 348)" fill="#e36415"/>
        <path id="Path_50" data-name="Path 50" d="M104.657-192.152l-1.073,2.321-.493.024-.493.024-.445.755a2.788,2.788,0,0,1-.5.715c-.032-.024-.588-.914-1.24-1.987s-1.216-1.948-1.24-1.955a13.35,13.35,0,0,0-.827,1.232l-.763,1.232H96v1.908h2.21l.477-.8.469-.8,1.256,2.043c.692,1.113,1.272,2.019,1.288,2s.366-.564.771-1.216l.739-1.176.652-.04.652-.04.612-1.375c.334-.747.62-1.367.644-1.367s.866,1.725,1.876,3.824,1.844,3.831,1.876,3.855.533-1.073,1.121-2.417l1.065-2.44,1.272-.04,1.264-.04.024-.938.024-.93-1.606.016-1.6.024-.763,1.685a12.443,12.443,0,0,1-.811,1.63c-.032-.032-.866-1.828-1.86-3.99s-1.836-3.959-1.86-3.99A22.028,22.028,0,0,0,104.657-192.152Z" transform="translate(-92.582 200.522)" fill="#e36415"/>
      </g>
    </g>
  </g>
</svg>
